<mxfile host="app.diagrams.net" agent="Mozilla/5.0 (X11; Linux x86_64) AppleWebKit/537.36 (KHTML, like Gecko) Chrome/135.0.0.0 Safari/537.36" version="26.2.9">
  <diagram id="C5RBs43oDa-KdzZeNtuy" name="Page-1">
    <mxGraphModel dx="1871" dy="1689" grid="1" gridSize="10" guides="1" tooltips="1" connect="1" arrows="1" fold="1" page="1" pageScale="1" pageWidth="827" pageHeight="1169" math="0" shadow="0">
      <root>
        <mxCell id="WIyWlLk6GJQsqaUBKTNV-0" />
        <mxCell id="WIyWlLk6GJQsqaUBKTNV-1" parent="WIyWlLk6GJQsqaUBKTNV-0" />
        <mxCell id="zkfFHV4jXpPFQw0GAbJ--0" value="Producto" style="swimlane;fontStyle=2;align=center;verticalAlign=top;childLayout=stackLayout;horizontal=1;startSize=26;horizontalStack=0;resizeParent=1;resizeLast=0;collapsible=1;marginBottom=0;rounded=0;shadow=0;strokeWidth=1;fillColor=#dae8fc;strokeColor=#6c8ebf;" parent="WIyWlLk6GJQsqaUBKTNV-1" vertex="1">
          <mxGeometry x="50" y="120" width="160" height="440" as="geometry">
            <mxRectangle x="230" y="140" width="160" height="26" as="alternateBounds" />
          </mxGeometry>
        </mxCell>
        <mxCell id="zkfFHV4jXpPFQw0GAbJ--1" value="- id_producto: str" style="text;align=left;verticalAlign=top;spacingLeft=4;spacingRight=4;overflow=hidden;rotatable=0;points=[[0,0.5],[1,0.5]];portConstraint=eastwest;fontSize=10;" parent="zkfFHV4jXpPFQw0GAbJ--0" vertex="1">
          <mxGeometry y="26" width="160" height="26" as="geometry" />
        </mxCell>
        <mxCell id="zkfFHV4jXpPFQw0GAbJ--2" value="- nombre: str" style="text;align=left;verticalAlign=top;spacingLeft=4;spacingRight=4;overflow=hidden;rotatable=0;points=[[0,0.5],[1,0.5]];portConstraint=eastwest;rounded=0;shadow=0;html=0;fontSize=10;" parent="zkfFHV4jXpPFQw0GAbJ--0" vertex="1">
          <mxGeometry y="52" width="160" height="26" as="geometry" />
        </mxCell>
        <mxCell id="SfhZRY6BafHH0_COuk-q-11" value="- precio: float" style="text;align=left;verticalAlign=top;spacingLeft=4;spacingRight=4;overflow=hidden;rotatable=0;points=[[0,0.5],[1,0.5]];portConstraint=eastwest;rounded=0;shadow=0;html=0;fontSize=10;" parent="zkfFHV4jXpPFQw0GAbJ--0" vertex="1">
          <mxGeometry y="78" width="160" height="26" as="geometry" />
        </mxCell>
        <mxCell id="zkfFHV4jXpPFQw0GAbJ--3" value="- stock: int" style="text;align=left;verticalAlign=top;spacingLeft=4;spacingRight=4;overflow=hidden;rotatable=0;points=[[0,0.5],[1,0.5]];portConstraint=eastwest;rounded=0;shadow=0;html=0;fontSize=10;" parent="zkfFHV4jXpPFQw0GAbJ--0" vertex="1">
          <mxGeometry y="104" width="160" height="26" as="geometry" />
        </mxCell>
        <mxCell id="zkfFHV4jXpPFQw0GAbJ--4" value="" style="line;html=1;strokeWidth=1;align=left;verticalAlign=middle;spacingTop=-1;spacingLeft=3;spacingRight=3;rotatable=0;labelPosition=right;points=[];portConstraint=eastwest;fillColor=#dae8fc;strokeColor=#6c8ebf;" parent="zkfFHV4jXpPFQw0GAbJ--0" vertex="1">
          <mxGeometry y="130" width="160" height="8" as="geometry" />
        </mxCell>
        <mxCell id="SfhZRY6BafHH0_COuk-q-12" value="get_id_producto(self)" style="text;align=left;verticalAlign=top;spacingLeft=4;spacingRight=4;overflow=hidden;rotatable=0;points=[[0,0.5],[1,0.5]];portConstraint=eastwest;fontSize=10;" parent="zkfFHV4jXpPFQw0GAbJ--0" vertex="1">
          <mxGeometry y="138" width="160" height="26" as="geometry" />
        </mxCell>
        <mxCell id="zkfFHV4jXpPFQw0GAbJ--5" value="_init_(self, id_producto, nombre, &#xa;precio, stock)" style="text;align=left;verticalAlign=top;spacingLeft=4;spacingRight=4;overflow=hidden;rotatable=0;points=[[0,0.5],[1,0.5]];portConstraint=eastwest;fontSize=10;" parent="zkfFHV4jXpPFQw0GAbJ--0" vertex="1">
          <mxGeometry y="164" width="160" height="42" as="geometry" />
        </mxCell>
        <mxCell id="SfhZRY6BafHH0_COuk-q-14" value="get_nombre(self)" style="text;align=left;verticalAlign=top;spacingLeft=4;spacingRight=4;overflow=hidden;rotatable=0;points=[[0,0.5],[1,0.5]];portConstraint=eastwest;fontSize=10;" parent="zkfFHV4jXpPFQw0GAbJ--0" vertex="1">
          <mxGeometry y="206" width="160" height="26" as="geometry" />
        </mxCell>
        <mxCell id="SfhZRY6BafHH0_COuk-q-13" value="set_id_producto(self, id_producto)" style="text;align=left;verticalAlign=top;spacingLeft=4;spacingRight=4;overflow=hidden;rotatable=0;points=[[0,0.5],[1,0.5]];portConstraint=eastwest;fontSize=10;" parent="zkfFHV4jXpPFQw0GAbJ--0" vertex="1">
          <mxGeometry y="232" width="160" height="26" as="geometry" />
        </mxCell>
        <mxCell id="SfhZRY6BafHH0_COuk-q-15" value="set_nombre(self, nombre)" style="text;align=left;verticalAlign=top;spacingLeft=4;spacingRight=4;overflow=hidden;rotatable=0;points=[[0,0.5],[1,0.5]];portConstraint=eastwest;fontSize=10;" parent="zkfFHV4jXpPFQw0GAbJ--0" vertex="1">
          <mxGeometry y="258" width="160" height="26" as="geometry" />
        </mxCell>
        <mxCell id="SfhZRY6BafHH0_COuk-q-16" value="get_precio(self)" style="text;align=left;verticalAlign=top;spacingLeft=4;spacingRight=4;overflow=hidden;rotatable=0;points=[[0,0.5],[1,0.5]];portConstraint=eastwest;fontSize=10;" parent="zkfFHV4jXpPFQw0GAbJ--0" vertex="1">
          <mxGeometry y="284" width="160" height="26" as="geometry" />
        </mxCell>
        <mxCell id="SfhZRY6BafHH0_COuk-q-17" value="set_precio(self, precio)" style="text;align=left;verticalAlign=top;spacingLeft=4;spacingRight=4;overflow=hidden;rotatable=1;points=[[0,0.5],[1,0.5]];portConstraint=eastwest;movable=1;resizable=1;deletable=1;editable=1;locked=0;connectable=1;fontSize=10;" parent="zkfFHV4jXpPFQw0GAbJ--0" vertex="1">
          <mxGeometry y="310" width="160" height="26" as="geometry" />
        </mxCell>
        <mxCell id="SfhZRY6BafHH0_COuk-q-18" value="get_stock(self)" style="text;align=left;verticalAlign=top;spacingLeft=4;spacingRight=4;overflow=hidden;rotatable=1;points=[[0,0.5],[1,0.5]];portConstraint=eastwest;movable=1;resizable=1;deletable=1;editable=1;locked=0;connectable=1;fontSize=10;" parent="zkfFHV4jXpPFQw0GAbJ--0" vertex="1">
          <mxGeometry y="336" width="160" height="26" as="geometry" />
        </mxCell>
        <mxCell id="SfhZRY6BafHH0_COuk-q-19" value="set_stock(self, stock)" style="text;align=left;verticalAlign=top;spacingLeft=4;spacingRight=4;overflow=hidden;rotatable=1;points=[[0,0.5],[1,0.5]];portConstraint=eastwest;movable=1;resizable=1;deletable=1;editable=1;locked=0;connectable=1;fontSize=10;" parent="zkfFHV4jXpPFQw0GAbJ--0" vertex="1">
          <mxGeometry y="362" width="160" height="26" as="geometry" />
        </mxCell>
        <mxCell id="SfhZRY6BafHH0_COuk-q-20" value="__str__(self)" style="text;align=left;verticalAlign=top;spacingLeft=4;spacingRight=4;overflow=hidden;rotatable=1;points=[[0,0.5],[1,0.5]];portConstraint=eastwest;movable=1;resizable=1;deletable=1;editable=1;locked=0;connectable=1;fontSize=10;" parent="zkfFHV4jXpPFQw0GAbJ--0" vertex="1">
          <mxGeometry y="388" width="160" height="26" as="geometry" />
        </mxCell>
        <mxCell id="SfhZRY6BafHH0_COuk-q-21" value="actualizar_stock(self, stock)" style="text;align=left;verticalAlign=top;spacingLeft=4;spacingRight=4;overflow=hidden;rotatable=1;points=[[0,0.5],[1,0.5]];portConstraint=eastwest;movable=1;resizable=1;deletable=1;editable=1;locked=0;connectable=1;fontSize=10;" parent="zkfFHV4jXpPFQw0GAbJ--0" vertex="1">
          <mxGeometry y="414" width="160" height="16" as="geometry" />
        </mxCell>
        <mxCell id="zkfFHV4jXpPFQw0GAbJ--6" value="ProductoDIgital" style="swimlane;fontStyle=0;align=center;verticalAlign=top;childLayout=stackLayout;horizontal=1;startSize=26;horizontalStack=0;resizeParent=1;resizeLast=0;collapsible=1;marginBottom=0;rounded=0;shadow=0;strokeWidth=1;fillColor=#dae8fc;strokeColor=#6c8ebf;" parent="WIyWlLk6GJQsqaUBKTNV-1" vertex="1">
          <mxGeometry x="330" y="350" width="190" height="138" as="geometry">
            <mxRectangle x="130" y="380" width="160" height="26" as="alternateBounds" />
          </mxGeometry>
        </mxCell>
        <mxCell id="zkfFHV4jXpPFQw0GAbJ--7" value="- formato: str" style="text;align=left;verticalAlign=top;spacingLeft=4;spacingRight=4;overflow=hidden;rotatable=0;points=[[0,0.5],[1,0.5]];portConstraint=eastwest;fontSize=10;" parent="zkfFHV4jXpPFQw0GAbJ--6" vertex="1">
          <mxGeometry y="26" width="190" height="26" as="geometry" />
        </mxCell>
        <mxCell id="zkfFHV4jXpPFQw0GAbJ--8" value="- tamaño: float" style="text;align=left;verticalAlign=top;spacingLeft=4;spacingRight=4;overflow=hidden;rotatable=0;points=[[0,0.5],[1,0.5]];portConstraint=eastwest;rounded=0;shadow=0;html=0;fontSize=10;" parent="zkfFHV4jXpPFQw0GAbJ--6" vertex="1">
          <mxGeometry y="52" width="190" height="26" as="geometry" />
        </mxCell>
        <mxCell id="zkfFHV4jXpPFQw0GAbJ--9" value="" style="line;html=1;strokeWidth=1;align=left;verticalAlign=middle;spacingTop=-1;spacingLeft=3;spacingRight=3;rotatable=0;labelPosition=right;points=[];portConstraint=eastwest;fillColor=#dae8fc;strokeColor=#6c8ebf;" parent="zkfFHV4jXpPFQw0GAbJ--6" vertex="1">
          <mxGeometry y="78" width="190" height="8" as="geometry" />
        </mxCell>
        <mxCell id="zkfFHV4jXpPFQw0GAbJ--11" value="_init_(self, id_producto, nombre, &#xa;precio, stock, formato, tamaño)" style="text;align=left;verticalAlign=top;spacingLeft=4;spacingRight=4;overflow=hidden;rotatable=0;points=[[0,0.5],[1,0.5]];portConstraint=eastwest;fontSize=10;" parent="zkfFHV4jXpPFQw0GAbJ--6" vertex="1">
          <mxGeometry y="86" width="190" height="34" as="geometry" />
        </mxCell>
        <mxCell id="zkfFHV4jXpPFQw0GAbJ--12" value="" style="endArrow=block;endSize=10;endFill=0;shadow=0;strokeWidth=1;rounded=0;curved=0;edgeStyle=elbowEdgeStyle;elbow=vertical;" parent="WIyWlLk6GJQsqaUBKTNV-1" source="zkfFHV4jXpPFQw0GAbJ--6" target="zkfFHV4jXpPFQw0GAbJ--0" edge="1">
          <mxGeometry width="160" relative="1" as="geometry">
            <mxPoint x="200" y="203" as="sourcePoint" />
            <mxPoint x="200" y="203" as="targetPoint" />
          </mxGeometry>
        </mxCell>
        <mxCell id="zkfFHV4jXpPFQw0GAbJ--17" value="Cliente" style="swimlane;fontStyle=0;align=center;verticalAlign=top;childLayout=stackLayout;horizontal=1;startSize=26;horizontalStack=0;resizeParent=1;resizeLast=0;collapsible=1;marginBottom=0;rounded=0;shadow=0;strokeWidth=1;fillColor=#dae8fc;strokeColor=#6c8ebf;" parent="WIyWlLk6GJQsqaUBKTNV-1" vertex="1">
          <mxGeometry x="590" y="70" width="130" height="440" as="geometry">
            <mxRectangle x="550" y="140" width="160" height="26" as="alternateBounds" />
          </mxGeometry>
        </mxCell>
        <mxCell id="zkfFHV4jXpPFQw0GAbJ--18" value="- id_Cliente: str" style="text;align=left;verticalAlign=top;spacingLeft=4;spacingRight=4;overflow=hidden;rotatable=0;points=[[0,0.5],[1,0.5]];portConstraint=eastwest;fontSize=10;" parent="zkfFHV4jXpPFQw0GAbJ--17" vertex="1">
          <mxGeometry y="26" width="130" height="26" as="geometry" />
        </mxCell>
        <mxCell id="zkfFHV4jXpPFQw0GAbJ--19" value="- Nombre: str" style="text;align=left;verticalAlign=top;spacingLeft=4;spacingRight=4;overflow=hidden;rotatable=0;points=[[0,0.5],[1,0.5]];portConstraint=eastwest;rounded=0;shadow=0;html=0;fontSize=10;" parent="zkfFHV4jXpPFQw0GAbJ--17" vertex="1">
          <mxGeometry y="52" width="130" height="26" as="geometry" />
        </mxCell>
        <mxCell id="zkfFHV4jXpPFQw0GAbJ--20" value="- Email: str" style="text;align=left;verticalAlign=top;spacingLeft=4;spacingRight=4;overflow=hidden;rotatable=0;points=[[0,0.5],[1,0.5]];portConstraint=eastwest;rounded=0;shadow=0;html=0;fontSize=10;" parent="zkfFHV4jXpPFQw0GAbJ--17" vertex="1">
          <mxGeometry y="78" width="130" height="26" as="geometry" />
        </mxCell>
        <mxCell id="zkfFHV4jXpPFQw0GAbJ--21" value="- Dirección: str" style="text;align=left;verticalAlign=top;spacingLeft=4;spacingRight=4;overflow=hidden;rotatable=0;points=[[0,0.5],[1,0.5]];portConstraint=eastwest;rounded=0;shadow=0;html=0;fontSize=10;" parent="zkfFHV4jXpPFQw0GAbJ--17" vertex="1">
          <mxGeometry y="104" width="130" height="26" as="geometry" />
        </mxCell>
        <mxCell id="zkfFHV4jXpPFQw0GAbJ--23" value="" style="line;html=1;strokeWidth=1;align=left;verticalAlign=middle;spacingTop=-1;spacingLeft=3;spacingRight=3;rotatable=0;labelPosition=right;points=[];portConstraint=eastwest;fillColor=#dae8fc;strokeColor=#6c8ebf;" parent="zkfFHV4jXpPFQw0GAbJ--17" vertex="1">
          <mxGeometry y="130" width="130" height="8" as="geometry" />
        </mxCell>
        <mxCell id="SfhZRY6BafHH0_COuk-q-8" value="_init_(self, id_cliente, nombre, &#xa;email, direccion)" style="text;align=left;verticalAlign=top;spacingLeft=4;spacingRight=4;overflow=hidden;rotatable=0;points=[[0,0.5],[1,0.5]];portConstraint=eastwest;fontSize=10;" parent="zkfFHV4jXpPFQw0GAbJ--17" vertex="1">
          <mxGeometry y="138" width="130" height="42" as="geometry" />
        </mxCell>
        <mxCell id="zkfFHV4jXpPFQw0GAbJ--24" value="get_id_cliente(self)" style="text;align=left;verticalAlign=top;spacingLeft=4;spacingRight=4;overflow=hidden;rotatable=0;points=[[0,0.5],[1,0.5]];portConstraint=eastwest;fontSize=10;" parent="zkfFHV4jXpPFQw0GAbJ--17" vertex="1">
          <mxGeometry y="180" width="130" height="26" as="geometry" />
        </mxCell>
        <mxCell id="zkfFHV4jXpPFQw0GAbJ--25" value="set_id_cliente(self, id_cliente)" style="text;align=left;verticalAlign=top;spacingLeft=4;spacingRight=4;overflow=hidden;rotatable=0;points=[[0,0.5],[1,0.5]];portConstraint=eastwest;fontSize=10;" parent="zkfFHV4jXpPFQw0GAbJ--17" vertex="1">
          <mxGeometry y="206" width="130" height="26" as="geometry" />
        </mxCell>
        <mxCell id="SfhZRY6BafHH0_COuk-q-2" value="get_nombre(self)" style="text;align=left;verticalAlign=top;spacingLeft=4;spacingRight=4;overflow=hidden;rotatable=0;points=[[0,0.5],[1,0.5]];portConstraint=eastwest;fontSize=10;" parent="zkfFHV4jXpPFQw0GAbJ--17" vertex="1">
          <mxGeometry y="232" width="130" height="26" as="geometry" />
        </mxCell>
        <mxCell id="SfhZRY6BafHH0_COuk-q-3" value="set_nombre(self, nombre)" style="text;align=left;verticalAlign=top;spacingLeft=4;spacingRight=4;overflow=hidden;rotatable=0;points=[[0,0.5],[1,0.5]];portConstraint=eastwest;fontSize=10;" parent="zkfFHV4jXpPFQw0GAbJ--17" vertex="1">
          <mxGeometry y="258" width="130" height="26" as="geometry" />
        </mxCell>
        <mxCell id="SfhZRY6BafHH0_COuk-q-4" value="get_email(self)" style="text;align=left;verticalAlign=top;spacingLeft=4;spacingRight=4;overflow=hidden;rotatable=0;points=[[0,0.5],[1,0.5]];portConstraint=eastwest;fontSize=10;" parent="zkfFHV4jXpPFQw0GAbJ--17" vertex="1">
          <mxGeometry y="284" width="130" height="26" as="geometry" />
        </mxCell>
        <mxCell id="SfhZRY6BafHH0_COuk-q-5" value="set_email(self, email)" style="text;align=left;verticalAlign=top;spacingLeft=4;spacingRight=4;overflow=hidden;rotatable=0;points=[[0,0.5],[1,0.5]];portConstraint=eastwest;fontSize=10;" parent="zkfFHV4jXpPFQw0GAbJ--17" vertex="1">
          <mxGeometry y="310" width="130" height="26" as="geometry" />
        </mxCell>
        <mxCell id="SfhZRY6BafHH0_COuk-q-6" value="get_direccion(self)" style="text;align=left;verticalAlign=top;spacingLeft=4;spacingRight=4;overflow=hidden;rotatable=0;points=[[0,0.5],[1,0.5]];portConstraint=eastwest;fontSize=10;" parent="zkfFHV4jXpPFQw0GAbJ--17" vertex="1">
          <mxGeometry y="336" width="130" height="26" as="geometry" />
        </mxCell>
        <mxCell id="SfhZRY6BafHH0_COuk-q-7" value="set_direccion(self,direccion)" style="text;align=left;verticalAlign=top;spacingLeft=4;spacingRight=4;overflow=hidden;rotatable=0;points=[[0,0.5],[1,0.5]];portConstraint=eastwest;fontSize=10;" parent="zkfFHV4jXpPFQw0GAbJ--17" vertex="1">
          <mxGeometry y="362" width="130" height="26" as="geometry" />
        </mxCell>
        <mxCell id="SfhZRY6BafHH0_COuk-q-10" value="_str_(self)" style="text;align=left;verticalAlign=top;spacingLeft=4;spacingRight=4;overflow=hidden;rotatable=0;points=[[0,0.5],[1,0.5]];portConstraint=eastwest;fontSize=10;" parent="zkfFHV4jXpPFQw0GAbJ--17" vertex="1">
          <mxGeometry y="388" width="130" height="26" as="geometry" />
        </mxCell>
        <mxCell id="SfhZRY6BafHH0_COuk-q-23" value="Pedido" style="swimlane;fontStyle=0;align=center;verticalAlign=top;childLayout=stackLayout;horizontal=1;startSize=26;horizontalStack=0;resizeParent=1;resizeLast=0;collapsible=1;marginBottom=0;rounded=0;shadow=0;strokeWidth=1;fillColor=#dae8fc;strokeColor=#6c8ebf;" parent="WIyWlLk6GJQsqaUBKTNV-1" vertex="1">
          <mxGeometry x="150" y="650" width="170" height="414" as="geometry">
            <mxRectangle x="550" y="140" width="160" height="26" as="alternateBounds" />
          </mxGeometry>
        </mxCell>
        <mxCell id="SfhZRY6BafHH0_COuk-q-24" value="- id_pedido: str" style="text;align=left;verticalAlign=top;spacingLeft=4;spacingRight=4;overflow=hidden;rotatable=0;points=[[0,0.5],[1,0.5]];portConstraint=eastwest;fontSize=10;" parent="SfhZRY6BafHH0_COuk-q-23" vertex="1">
          <mxGeometry y="26" width="170" height="26" as="geometry" />
        </mxCell>
        <mxCell id="SfhZRY6BafHH0_COuk-q-25" value="- cliente: Cliente" style="text;align=left;verticalAlign=top;spacingLeft=4;spacingRight=4;overflow=hidden;rotatable=0;points=[[0,0.5],[1,0.5]];portConstraint=eastwest;rounded=0;shadow=0;html=0;fontSize=10;" parent="SfhZRY6BafHH0_COuk-q-23" vertex="1">
          <mxGeometry y="52" width="170" height="26" as="geometry" />
        </mxCell>
        <mxCell id="SfhZRY6BafHH0_COuk-q-26" value="- productos: list" style="text;align=left;verticalAlign=top;spacingLeft=4;spacingRight=4;overflow=hidden;rotatable=0;points=[[0,0.5],[1,0.5]];portConstraint=eastwest;rounded=0;shadow=0;html=0;fontSize=10;" parent="SfhZRY6BafHH0_COuk-q-23" vertex="1">
          <mxGeometry y="78" width="170" height="26" as="geometry" />
        </mxCell>
        <mxCell id="SfhZRY6BafHH0_COuk-q-27" value="- fecha: str" style="text;align=left;verticalAlign=top;spacingLeft=4;spacingRight=4;overflow=hidden;rotatable=0;points=[[0,0.5],[1,0.5]];portConstraint=eastwest;rounded=0;shadow=0;html=0;fontSize=10;" parent="SfhZRY6BafHH0_COuk-q-23" vertex="1">
          <mxGeometry y="104" width="170" height="26" as="geometry" />
        </mxCell>
        <mxCell id="SfhZRY6BafHH0_COuk-q-28" value="" style="line;html=1;strokeWidth=1;align=left;verticalAlign=middle;spacingTop=-1;spacingLeft=3;spacingRight=3;rotatable=0;labelPosition=right;points=[];portConstraint=eastwest;fillColor=#dae8fc;strokeColor=#6c8ebf;" parent="SfhZRY6BafHH0_COuk-q-23" vertex="1">
          <mxGeometry y="130" width="170" height="8" as="geometry" />
        </mxCell>
        <mxCell id="SfhZRY6BafHH0_COuk-q-29" value="_init_(self, id_pedido, cliente, &#xa;fecha)" style="text;align=left;verticalAlign=top;spacingLeft=4;spacingRight=4;overflow=hidden;rotatable=0;points=[[0,0.5],[1,0.5]];portConstraint=eastwest;fontSize=10;" parent="SfhZRY6BafHH0_COuk-q-23" vertex="1">
          <mxGeometry y="138" width="170" height="42" as="geometry" />
        </mxCell>
        <mxCell id="SfhZRY6BafHH0_COuk-q-30" value="get_id_pedido(self)" style="text;align=left;verticalAlign=top;spacingLeft=4;spacingRight=4;overflow=hidden;rotatable=0;points=[[0,0.5],[1,0.5]];portConstraint=eastwest;fontSize=10;" parent="SfhZRY6BafHH0_COuk-q-23" vertex="1">
          <mxGeometry y="180" width="170" height="26" as="geometry" />
        </mxCell>
        <mxCell id="SfhZRY6BafHH0_COuk-q-31" value="set_id_pedido(self, id_pedido)" style="text;align=left;verticalAlign=top;spacingLeft=4;spacingRight=4;overflow=hidden;rotatable=0;points=[[0,0.5],[1,0.5]];portConstraint=eastwest;fontSize=10;" parent="SfhZRY6BafHH0_COuk-q-23" vertex="1">
          <mxGeometry y="206" width="170" height="26" as="geometry" />
        </mxCell>
        <mxCell id="SfhZRY6BafHH0_COuk-q-32" value="get_cliente(self)" style="text;align=left;verticalAlign=top;spacingLeft=4;spacingRight=4;overflow=hidden;rotatable=0;points=[[0,0.5],[1,0.5]];portConstraint=eastwest;fontSize=10;" parent="SfhZRY6BafHH0_COuk-q-23" vertex="1">
          <mxGeometry y="232" width="170" height="26" as="geometry" />
        </mxCell>
        <mxCell id="SfhZRY6BafHH0_COuk-q-33" value="set_cliente(self, cliente)" style="text;align=left;verticalAlign=top;spacingLeft=4;spacingRight=4;overflow=hidden;rotatable=0;points=[[0,0.5],[1,0.5]];portConstraint=eastwest;fontSize=10;" parent="SfhZRY6BafHH0_COuk-q-23" vertex="1">
          <mxGeometry y="258" width="170" height="26" as="geometry" />
        </mxCell>
        <mxCell id="SfhZRY6BafHH0_COuk-q-34" value="get_fecha(self)" style="text;align=left;verticalAlign=top;spacingLeft=4;spacingRight=4;overflow=hidden;rotatable=0;points=[[0,0.5],[1,0.5]];portConstraint=eastwest;fontSize=10;" parent="SfhZRY6BafHH0_COuk-q-23" vertex="1">
          <mxGeometry y="284" width="170" height="26" as="geometry" />
        </mxCell>
        <mxCell id="SfhZRY6BafHH0_COuk-q-35" value="set_fecha(self, fecha)" style="text;align=left;verticalAlign=top;spacingLeft=4;spacingRight=4;overflow=hidden;rotatable=0;points=[[0,0.5],[1,0.5]];portConstraint=eastwest;fontSize=10;" parent="SfhZRY6BafHH0_COuk-q-23" vertex="1">
          <mxGeometry y="310" width="170" height="26" as="geometry" />
        </mxCell>
        <mxCell id="SfhZRY6BafHH0_COuk-q-36" value="agregar_producto(self, producto)" style="text;align=left;verticalAlign=top;spacingLeft=4;spacingRight=4;overflow=hidden;rotatable=0;points=[[0,0.5],[1,0.5]];portConstraint=eastwest;fontSize=10;" parent="SfhZRY6BafHH0_COuk-q-23" vertex="1">
          <mxGeometry y="336" width="170" height="26" as="geometry" />
        </mxCell>
        <mxCell id="SfhZRY6BafHH0_COuk-q-37" value="calcular_total(self)" style="text;align=left;verticalAlign=top;spacingLeft=4;spacingRight=4;overflow=hidden;rotatable=0;points=[[0,0.5],[1,0.5]];portConstraint=eastwest;fontSize=10;" parent="SfhZRY6BafHH0_COuk-q-23" vertex="1">
          <mxGeometry y="362" width="170" height="26" as="geometry" />
        </mxCell>
        <mxCell id="SfhZRY6BafHH0_COuk-q-38" value="_str_(self)" style="text;align=left;verticalAlign=top;spacingLeft=4;spacingRight=4;overflow=hidden;rotatable=0;points=[[0,0.5],[1,0.5]];portConstraint=eastwest;fontSize=10;" parent="SfhZRY6BafHH0_COuk-q-23" vertex="1">
          <mxGeometry y="388" width="170" height="26" as="geometry" />
        </mxCell>
        <mxCell id="SfhZRY6BafHH0_COuk-q-45" style="edgeStyle=orthogonalEdgeStyle;rounded=0;orthogonalLoop=1;jettySize=auto;html=1;exitX=0;exitY=0.5;exitDx=0;exitDy=0;endArrow=none;startFill=0;entryX=0.75;entryY=1;entryDx=0;entryDy=0;" parent="WIyWlLk6GJQsqaUBKTNV-1" source="SfhZRY6BafHH0_COuk-q-39" target="zkfFHV4jXpPFQw0GAbJ--0" edge="1">
          <mxGeometry relative="1" as="geometry">
            <mxPoint x="380" y="565" as="targetPoint" />
          </mxGeometry>
        </mxCell>
        <mxCell id="SfhZRY6BafHH0_COuk-q-39" value="" style="rhombus;whiteSpace=wrap;html=1;" parent="WIyWlLk6GJQsqaUBKTNV-1" vertex="1">
          <mxGeometry x="215" y="610" width="40" height="40" as="geometry" />
        </mxCell>
        <mxCell id="SfhZRY6BafHH0_COuk-q-43" value="0, *" style="rounded=0;whiteSpace=wrap;html=1;" parent="WIyWlLk6GJQsqaUBKTNV-1" vertex="1">
          <mxGeometry x="270" y="620" width="30" height="20" as="geometry" />
        </mxCell>
        <mxCell id="SfhZRY6BafHH0_COuk-q-44" value="0, *" style="rounded=0;whiteSpace=wrap;html=1;" parent="WIyWlLk6GJQsqaUBKTNV-1" vertex="1">
          <mxGeometry x="160" y="575" width="30" height="20" as="geometry" />
        </mxCell>
        <mxCell id="SfhZRY6BafHH0_COuk-q-48" style="edgeStyle=orthogonalEdgeStyle;rounded=0;orthogonalLoop=1;jettySize=auto;html=1;endArrow=none;startFill=0;" parent="WIyWlLk6GJQsqaUBKTNV-1" source="SfhZRY6BafHH0_COuk-q-25" edge="1">
          <mxGeometry relative="1" as="geometry">
            <mxPoint x="600" y="510" as="targetPoint" />
            <Array as="points">
              <mxPoint x="600" y="715" />
            </Array>
          </mxGeometry>
        </mxCell>
        <mxCell id="SfhZRY6BafHH0_COuk-q-49" value="0, *" style="rounded=0;whiteSpace=wrap;html=1;" parent="WIyWlLk6GJQsqaUBKTNV-1" vertex="1">
          <mxGeometry x="620" y="630" width="30" height="20" as="geometry" />
        </mxCell>
        <mxCell id="SfhZRY6BafHH0_COuk-q-50" value="1" style="rounded=0;whiteSpace=wrap;html=1;" parent="WIyWlLk6GJQsqaUBKTNV-1" vertex="1">
          <mxGeometry x="620" y="520" width="30" height="20" as="geometry" />
        </mxCell>
        <mxCell id="RmBWcVt1z1CO7EhcGWCu-7" value="Reseñas" style="swimlane;fontStyle=2;align=center;verticalAlign=top;childLayout=stackLayout;horizontal=1;startSize=26;horizontalStack=0;resizeParent=1;resizeLast=0;collapsible=1;marginBottom=0;rounded=0;shadow=0;strokeWidth=1;fillColor=#dae8fc;strokeColor=#6c8ebf;" parent="WIyWlLk6GJQsqaUBKTNV-1" vertex="1">
          <mxGeometry x="485" y="750" width="240" height="414" as="geometry">
            <mxRectangle x="230" y="140" width="160" height="26" as="alternateBounds" />
          </mxGeometry>
        </mxCell>
        <mxCell id="RmBWcVt1z1CO7EhcGWCu-8" value="- id_reseña: str" style="text;align=left;verticalAlign=top;spacingLeft=4;spacingRight=4;overflow=hidden;rotatable=0;points=[[0,0.5],[1,0.5]];portConstraint=eastwest;fontSize=10;" parent="RmBWcVt1z1CO7EhcGWCu-7" vertex="1">
          <mxGeometry y="26" width="240" height="26" as="geometry" />
        </mxCell>
        <mxCell id="RmBWcVt1z1CO7EhcGWCu-9" value="- producto: Producto" style="text;align=left;verticalAlign=top;spacingLeft=4;spacingRight=4;overflow=hidden;rotatable=0;points=[[0,0.5],[1,0.5]];portConstraint=eastwest;rounded=0;shadow=0;html=0;fontSize=10;" parent="RmBWcVt1z1CO7EhcGWCu-7" vertex="1">
          <mxGeometry y="52" width="240" height="26" as="geometry" />
        </mxCell>
        <mxCell id="RmBWcVt1z1CO7EhcGWCu-10" value="- cliente: Cliente" style="text;align=left;verticalAlign=top;spacingLeft=4;spacingRight=4;overflow=hidden;rotatable=0;points=[[0,0.5],[1,0.5]];portConstraint=eastwest;rounded=0;shadow=0;html=0;fontSize=10;" parent="RmBWcVt1z1CO7EhcGWCu-7" vertex="1">
          <mxGeometry y="78" width="240" height="26" as="geometry" />
        </mxCell>
        <mxCell id="RmBWcVt1z1CO7EhcGWCu-11" value="- comentario: str" style="text;align=left;verticalAlign=top;spacingLeft=4;spacingRight=4;overflow=hidden;rotatable=0;points=[[0,0.5],[1,0.5]];portConstraint=eastwest;rounded=0;shadow=0;html=0;fontSize=10;" parent="RmBWcVt1z1CO7EhcGWCu-7" vertex="1">
          <mxGeometry y="104" width="240" height="26" as="geometry" />
        </mxCell>
        <mxCell id="RmBWcVt1z1CO7EhcGWCu-12" value="" style="line;html=1;strokeWidth=1;align=left;verticalAlign=middle;spacingTop=-1;spacingLeft=3;spacingRight=3;rotatable=0;labelPosition=right;points=[];portConstraint=eastwest;fillColor=#dae8fc;strokeColor=#6c8ebf;" parent="RmBWcVt1z1CO7EhcGWCu-7" vertex="1">
          <mxGeometry y="130" width="240" height="8" as="geometry" />
        </mxCell>
        <mxCell id="RmBWcVt1z1CO7EhcGWCu-13" value="get_id_producto(self)" style="text;align=left;verticalAlign=top;spacingLeft=4;spacingRight=4;overflow=hidden;rotatable=0;points=[[0,0.5],[1,0.5]];portConstraint=eastwest;fontSize=10;" parent="RmBWcVt1z1CO7EhcGWCu-7" vertex="1">
          <mxGeometry y="138" width="240" height="26" as="geometry" />
        </mxCell>
        <mxCell id="RmBWcVt1z1CO7EhcGWCu-41" value="get_id_producto(self)" style="text;align=left;verticalAlign=top;spacingLeft=4;spacingRight=4;overflow=hidden;rotatable=0;points=[[0,0.5],[1,0.5]];portConstraint=eastwest;fontSize=10;" parent="RmBWcVt1z1CO7EhcGWCu-7" vertex="1">
          <mxGeometry y="164" width="240" height="26" as="geometry" />
        </mxCell>
        <mxCell id="RmBWcVt1z1CO7EhcGWCu-14" value="_init_(self, id_producto, nombre, &#xa;precio, stock)" style="text;align=left;verticalAlign=top;spacingLeft=4;spacingRight=4;overflow=hidden;rotatable=0;points=[[0,0.5],[1,0.5]];portConstraint=eastwest;fontSize=10;" parent="RmBWcVt1z1CO7EhcGWCu-7" vertex="1">
          <mxGeometry y="190" width="240" height="42" as="geometry" />
        </mxCell>
        <mxCell id="RmBWcVt1z1CO7EhcGWCu-15" value="get_id_reseña(self)" style="text;align=left;verticalAlign=top;spacingLeft=4;spacingRight=4;overflow=hidden;rotatable=0;points=[[0,0.5],[1,0.5]];portConstraint=eastwest;fontSize=10;" parent="RmBWcVt1z1CO7EhcGWCu-7" vertex="1">
          <mxGeometry y="232" width="240" height="26" as="geometry" />
        </mxCell>
        <mxCell id="RmBWcVt1z1CO7EhcGWCu-16" value="get_id_reseña(self, id_reseña)" style="text;align=left;verticalAlign=top;spacingLeft=4;spacingRight=4;overflow=hidden;rotatable=0;points=[[0,0.5],[1,0.5]];portConstraint=eastwest;fontSize=10;" parent="RmBWcVt1z1CO7EhcGWCu-7" vertex="1">
          <mxGeometry y="258" width="240" height="26" as="geometry" />
        </mxCell>
        <mxCell id="RmBWcVt1z1CO7EhcGWCu-17" value="get_comentario(self)" style="text;align=left;verticalAlign=top;spacingLeft=4;spacingRight=4;overflow=hidden;rotatable=0;points=[[0,0.5],[1,0.5]];portConstraint=eastwest;fontSize=10;" parent="RmBWcVt1z1CO7EhcGWCu-7" vertex="1">
          <mxGeometry y="284" width="240" height="26" as="geometry" />
        </mxCell>
        <mxCell id="RmBWcVt1z1CO7EhcGWCu-18" value="get_comentario(self,id_reseña)" style="text;align=left;verticalAlign=top;spacingLeft=4;spacingRight=4;overflow=hidden;rotatable=0;points=[[0,0.5],[1,0.5]];portConstraint=eastwest;fontSize=10;" parent="RmBWcVt1z1CO7EhcGWCu-7" vertex="1">
          <mxGeometry y="310" width="240" height="26" as="geometry" />
        </mxCell>
        <mxCell id="RmBWcVt1z1CO7EhcGWCu-19" value="get_puntuacion(self)" style="text;align=left;verticalAlign=top;spacingLeft=4;spacingRight=4;overflow=hidden;rotatable=1;points=[[0,0.5],[1,0.5]];portConstraint=eastwest;movable=1;resizable=1;deletable=1;editable=1;locked=0;connectable=1;fontSize=10;" parent="RmBWcVt1z1CO7EhcGWCu-7" vertex="1">
          <mxGeometry y="336" width="240" height="26" as="geometry" />
        </mxCell>
        <mxCell id="RmBWcVt1z1CO7EhcGWCu-20" value="set_puntuacion(self,puntuacion)" style="text;align=left;verticalAlign=top;spacingLeft=4;spacingRight=4;overflow=hidden;rotatable=1;points=[[0,0.5],[1,0.5]];portConstraint=eastwest;movable=1;resizable=1;deletable=1;editable=1;locked=0;connectable=1;fontSize=10;" parent="RmBWcVt1z1CO7EhcGWCu-7" vertex="1">
          <mxGeometry y="362" width="240" height="26" as="geometry" />
        </mxCell>
        <mxCell id="RmBWcVt1z1CO7EhcGWCu-21" value="_str_(self)" style="text;align=left;verticalAlign=top;spacingLeft=4;spacingRight=4;overflow=hidden;rotatable=1;points=[[0,0.5],[1,0.5]];portConstraint=eastwest;movable=1;resizable=1;deletable=1;editable=1;locked=0;connectable=1;fontSize=10;" parent="RmBWcVt1z1CO7EhcGWCu-7" vertex="1">
          <mxGeometry y="388" width="240" height="26" as="geometry" />
        </mxCell>
        <mxCell id="RmBWcVt1z1CO7EhcGWCu-24" value="" style="endArrow=block;endSize=10;endFill=0;shadow=0;strokeWidth=1;rounded=0;curved=0;edgeStyle=elbowEdgeStyle;elbow=vertical;exitX=0.75;exitY=0;exitDx=0;exitDy=0;" parent="WIyWlLk6GJQsqaUBKTNV-1" source="RmBWcVt1z1CO7EhcGWCu-7" edge="1">
          <mxGeometry width="160" relative="1" as="geometry">
            <mxPoint x="670" y="710" as="sourcePoint" />
            <mxPoint x="690.04" y="510" as="targetPoint" />
            <Array as="points">
              <mxPoint x="690.04" y="540" />
            </Array>
          </mxGeometry>
        </mxCell>
        <mxCell id="RmBWcVt1z1CO7EhcGWCu-25" value="" style="endArrow=block;endSize=10;endFill=0;shadow=0;strokeWidth=1;rounded=0;curved=0;edgeStyle=elbowEdgeStyle;elbow=vertical;exitX=0.114;exitY=-0.002;exitDx=0;exitDy=0;exitPerimeter=0;" parent="WIyWlLk6GJQsqaUBKTNV-1" edge="1">
          <mxGeometry width="160" relative="1" as="geometry">
            <mxPoint x="515.56" y="750.0039999999999" as="sourcePoint" />
            <mxPoint x="210" y="540.98" as="targetPoint" />
            <Array as="points">
              <mxPoint x="515.2" y="540.78" />
            </Array>
          </mxGeometry>
        </mxCell>
        <mxCell id="RmBWcVt1z1CO7EhcGWCu-27" value="Main" style="swimlane;fontStyle=0;align=center;verticalAlign=top;childLayout=stackLayout;horizontal=1;startSize=26;horizontalStack=0;resizeParent=1;resizeLast=0;collapsible=1;marginBottom=0;rounded=0;shadow=0;strokeWidth=1;fillColor=#dae8fc;strokeColor=#6c8ebf;" parent="WIyWlLk6GJQsqaUBKTNV-1" vertex="1">
          <mxGeometry x="295" y="-160" width="190" height="156" as="geometry">
            <mxRectangle x="130" y="380" width="160" height="26" as="alternateBounds" />
          </mxGeometry>
        </mxCell>
        <mxCell id="RmBWcVt1z1CO7EhcGWCu-42" value="+ lista_productos: list" style="text;align=left;verticalAlign=top;spacingLeft=4;spacingRight=4;overflow=hidden;rotatable=0;points=[[0,0.5],[1,0.5]];portConstraint=eastwest;rounded=0;shadow=0;html=0;fontSize=10;" parent="RmBWcVt1z1CO7EhcGWCu-27" vertex="1">
          <mxGeometry y="26" width="190" height="26" as="geometry" />
        </mxCell>
        <mxCell id="RmBWcVt1z1CO7EhcGWCu-29" value="+ lista_productos: list" style="text;align=left;verticalAlign=top;spacingLeft=4;spacingRight=4;overflow=hidden;rotatable=0;points=[[0,0.5],[1,0.5]];portConstraint=eastwest;rounded=0;shadow=0;html=0;fontSize=10;" parent="RmBWcVt1z1CO7EhcGWCu-27" vertex="1">
          <mxGeometry y="52" width="190" height="26" as="geometry" />
        </mxCell>
        <mxCell id="RmBWcVt1z1CO7EhcGWCu-32" value="+ diccionario_clientes: dict" style="text;align=left;verticalAlign=top;spacingLeft=4;spacingRight=4;overflow=hidden;rotatable=0;points=[[0,0.5],[1,0.5]];portConstraint=eastwest;rounded=0;shadow=0;html=0;fontSize=10;" parent="RmBWcVt1z1CO7EhcGWCu-27" vertex="1">
          <mxGeometry y="78" width="190" height="26" as="geometry" />
        </mxCell>
        <mxCell id="RmBWcVt1z1CO7EhcGWCu-35" value="+ lista_pedidos: list" style="text;align=left;verticalAlign=top;spacingLeft=4;spacingRight=4;overflow=hidden;rotatable=0;points=[[0,0.5],[1,0.5]];portConstraint=eastwest;rounded=0;shadow=0;html=0;fontSize=10;" parent="RmBWcVt1z1CO7EhcGWCu-27" vertex="1">
          <mxGeometry y="104" width="190" height="32" as="geometry" />
        </mxCell>
        <mxCell id="RmBWcVt1z1CO7EhcGWCu-34" value="lista_reseñas: list" style="text;align=left;verticalAlign=top;spacingLeft=4;spacingRight=4;overflow=hidden;rotatable=0;points=[[0,0.5],[1,0.5]];portConstraint=eastwest;rounded=0;shadow=0;html=0;fontSize=10;" parent="RmBWcVt1z1CO7EhcGWCu-27" vertex="1">
          <mxGeometry y="136" width="190" height="20" as="geometry" />
        </mxCell>
        <mxCell id="RmBWcVt1z1CO7EhcGWCu-37" value="" style="endArrow=none;html=1;rounded=0;exitX=0.5;exitY=0;exitDx=0;exitDy=0;entryX=-0.014;entryY=-0.106;entryDx=0;entryDy=0;entryPerimeter=0;" parent="WIyWlLk6GJQsqaUBKTNV-1" source="zkfFHV4jXpPFQw0GAbJ--0" target="RmBWcVt1z1CO7EhcGWCu-35" edge="1">
          <mxGeometry width="50" height="50" relative="1" as="geometry">
            <mxPoint x="430" y="150" as="sourcePoint" />
            <mxPoint x="480" y="100" as="targetPoint" />
          </mxGeometry>
        </mxCell>
        <mxCell id="RmBWcVt1z1CO7EhcGWCu-38" value="" style="endArrow=none;html=1;rounded=0;exitX=0.5;exitY=0;exitDx=0;exitDy=0;entryX=1.018;entryY=0.019;entryDx=0;entryDy=0;entryPerimeter=0;" parent="WIyWlLk6GJQsqaUBKTNV-1" target="RmBWcVt1z1CO7EhcGWCu-35" edge="1">
          <mxGeometry width="50" height="50" relative="1" as="geometry">
            <mxPoint x="590" y="110" as="sourcePoint" />
            <mxPoint x="752" y="-95" as="targetPoint" />
          </mxGeometry>
        </mxCell>
        <mxCell id="RmBWcVt1z1CO7EhcGWCu-40" style="edgeStyle=orthogonalEdgeStyle;rounded=0;orthogonalLoop=1;jettySize=auto;html=1;entryX=1.017;entryY=0.977;entryDx=0;entryDy=0;entryPerimeter=0;endArrow=none;startFill=0;" parent="WIyWlLk6GJQsqaUBKTNV-1" source="RmBWcVt1z1CO7EhcGWCu-32" target="RmBWcVt1z1CO7EhcGWCu-11" edge="1">
          <mxGeometry relative="1" as="geometry">
            <Array as="points">
              <mxPoint x="490" y="-69" />
              <mxPoint x="490" y="-95" />
              <mxPoint x="800" y="-95" />
              <mxPoint x="800" y="900" />
              <mxPoint x="760" y="900" />
              <mxPoint x="760" y="879" />
            </Array>
          </mxGeometry>
        </mxCell>
        <mxCell id="RmBWcVt1z1CO7EhcGWCu-44" style="edgeStyle=orthogonalEdgeStyle;rounded=0;orthogonalLoop=1;jettySize=auto;html=1;entryX=0;entryY=0.5;entryDx=0;entryDy=0;endArrow=none;startFill=0;" parent="WIyWlLk6GJQsqaUBKTNV-1" source="RmBWcVt1z1CO7EhcGWCu-29" target="SfhZRY6BafHH0_COuk-q-27" edge="1">
          <mxGeometry relative="1" as="geometry">
            <Array as="points">
              <mxPoint x="-40" y="-95" />
              <mxPoint x="-40" y="1010" />
              <mxPoint x="48" y="1010" />
              <mxPoint x="48" y="767" />
            </Array>
          </mxGeometry>
        </mxCell>
        <mxCell id="RmBWcVt1z1CO7EhcGWCu-45" value="María del Mar López Montoya | 1ºDAW" style="text;html=1;align=center;verticalAlign=middle;whiteSpace=wrap;rounded=0;" parent="WIyWlLk6GJQsqaUBKTNV-1" vertex="1">
          <mxGeometry y="-330" width="240" height="30" as="geometry" />
        </mxCell>
      </root>
    </mxGraphModel>
  </diagram>
</mxfile>
